# xmcd CD database file
#
# Track frame offsets:
#	150
#	6825
#	32752
#	52257
#	71392
#	104367
#	112862
#	121750
#	137585
#	165102
#	274860
#	300360
#
# Disc length: 4354 seconds
#
# Revision: 0
# Processed by: cddbd v1.5.1PL2 Copyright (c) Steve Scherf et al.
# Submitted via: CDex 1.51
#
DISCID=9111000c
DTITLE=TALES OF PHANTASIA - Chapter2
DYEAR=1999
DGENRE=Game
TTITLE0=アルベイン流最終奥義 Track1
TTITLE1=アルベイン流最終奥義 Track2
TTITLE2=アルベイン流最終奥義 Track3
TTITLE3=アルベイン流最終奥義 Track4
TTITLE4=アルベイン流最終奥義 Track5
TTITLE5=アルベイン流最終奥義 Track6
TTITLE6=アルベイン流最終奥義 Track7
TTITLE7=アルベイン流最終奥義 Track8
TTITLE8=アルベイン流最終奥義 Track9
TTITLE9=アルベイン流最終奥義 Track10
TTITLE10=ふじばやしすずのにんじゃにっき〜水蜘蛛の術〜
TTITLE11=ふじばやしすずのにんじゃにっき〜桃色の術〜
EXTD=YEAR: 1999/6/5
EXTT0=
EXTT1=
EXTT2=
EXTT3=
EXTT4=
EXTT5=
EXTT6=
EXTT7=
EXTT8=
EXTT9=
EXTT10=
EXTT11=
PLAYORDER=
